<svg width="32" height="32" viewBox="0 0 32 32" fill="none" xmlns="http://www.w3.org/2000/svg">
<path fill-rule="evenodd" clip-rule="evenodd" d="M14.9389 5.95146V2.18292C14.9389 0.786682 17.0614 0.786682 17.0614 2.18292V5.95146L19.1052 3.9102C20.0914 2.92519 21.5902 4.42396 20.6039 5.4102L17.0615 8.9526V12.3201C17.8565 12.6238 17.9978 12.7063 18.6565 13.2438L21.5741 11.5588L22.8704 6.72015C23.2304 5.37639 25.2779 5.92639 24.9191 7.2689L24.1716 10.0601L27.4852 8.14634C28.699 7.52884 29.6552 9.30634 28.5377 9.98508L25.2289 11.8951L28.0215 12.6438C29.3677 13.0051 28.8215 15.0538 27.4727 14.6926L22.6314 13.3951L19.7164 15.0788C19.8539 15.9388 19.8527 16.0663 19.7164 16.9251L22.6314 18.6088L27.4727 17.3113C28.819 16.9501 29.3702 18.9976 28.0202 19.3601L25.229 20.1088L28.5378 22.0188C29.6228 22.6776 28.7528 24.4201 27.5378 23.8813L24.1703 21.9439L24.9178 24.7351C25.2778 26.0776 23.2291 26.6276 22.8691 25.2838L21.5728 20.4451L18.6552 18.7601C17.9978 19.2976 17.854 19.3801 17.0603 19.6839V23.0513L20.6013 26.5924C21.5876 27.5787 20.0888 29.0799 19.1013 28.0924L17.0601 26.0512V29.8197C17.0601 31.2159 14.9376 31.2159 14.9376 29.8197L14.9388 26.0485L12.8976 28.0897C11.9851 29.0023 10.2701 27.7185 11.5326 26.456L14.939 23.0475V19.6811C14.144 19.3773 14.0027 19.2948 13.344 18.756L10.4277 20.4398L9.1302 25.2798C8.7777 26.596 6.7877 26.1123 7.06895 24.7873L7.8302 21.9412L4.5166 23.8549C3.30284 24.4724 2.34535 22.6949 3.4641 22.0162L6.7729 20.1062L3.98036 19.3574C2.68412 19.0099 3.12911 17.0124 4.47287 17.2962L9.36914 18.6062L12.2841 16.9224C12.1478 16.0624 12.1478 15.9374 12.2841 15.0762L9.36914 13.3924L4.5278 14.6899C3.18404 15.0499 2.63655 13.0012 3.97906 12.6412L6.77159 11.8924L3.46279 9.98242C2.37778 9.32367 3.24779 7.58116 4.46279 8.11991L7.83026 10.0574L7.07527 7.2398C6.75527 5.8973 8.77402 5.3873 9.13026 6.7173L10.4265 11.556L13.3441 13.241C14.0016 12.7035 14.1454 12.621 14.9391 12.3172L14.9378 8.95215L11.3981 5.41108C10.4856 4.49858 11.7694 2.78359 13.0319 4.04607H13.0344L14.9389 5.95146Z" fill="#FFFFFF"/>
<defs>
<linearGradient id="paint0_linear_5558_1402" x1="16.0006" y1="1.13574" x2="16.0006" y2="30.8669" gradientUnits="userSpaceOnUse">
<stop stop-color="#ECFBFB"/>
<stop offset="1" stop-color="#81ADCC"/>
</linearGradient>
</defs>
</svg>
