<svg width="32" height="32" viewBox="0 0 32 32" fill="none" xmlns="http://www.w3.org/2000/svg">
<g clip-path="url(#clip0_3875_1082)">
<g clip-path="url(#clip1_3875_1082)">
<path d="M14.8032 32H12.72C12.6919 31.973 12.6608 31.9494 12.6272 31.9296C11.3087 31.328 10.6752 30.1183 11.0272 28.7072C11.9711 24.816 12.9472 20.9312 13.9072 17.0432C14.0392 16.5052 14.1343 15.9589 14.192 15.408C14.2303 15.2685 14.1863 15.1193 14.0784 15.023C13.9706 14.9267 13.8175 14.8997 13.6832 14.9536C13.4624 15.0034 13.2478 15.0775 13.0432 15.1743C12.5696 15.3728 12.1088 15.6063 11.632 15.7887C11.4604 15.8959 11.2546 15.9343 11.0558 15.8964C10.8571 15.8584 10.68 15.7468 10.56 15.5839V14.8256C10.8825 14.3742 11.2479 13.9552 11.6512 13.5743C13.0784 12.4511 14.5312 11.3791 16.0128 10.3071C16.3292 10.0991 16.6685 9.92835 17.024 9.79835C17.4883 9.59637 18.0034 9.54273 18.4992 9.64471C20.352 10.0191 21.312 11.5039 20.8608 13.3311C19.9457 17.0772 19.0262 20.8234 18.1024 24.5695C17.9572 25.1798 17.8503 25.7987 17.7824 26.4223C17.7449 26.5625 17.7949 26.7115 17.9092 26.8008C18.0236 26.8901 18.1803 26.9023 18.3072 26.8319C18.6559 26.7263 18.9856 26.5567 19.3248 26.4191C19.7343 26.2399 20.16 26.0767 20.5728 25.9199C20.6932 25.8756 20.8246 25.8711 20.9477 25.9068C21.0709 25.9424 21.1795 26.0166 21.2576 26.1183C21.3435 26.219 21.3961 26.3439 21.4081 26.4756C21.4202 26.6074 21.391 26.7397 21.3248 26.8543C21.2209 27.0724 21.0885 27.2758 20.9312 27.4591C20.5875 27.8428 20.2164 28.2011 19.8208 28.5311C18.24 29.8047 16.6208 31.056 14.8032 32V32Z" fill="#FFFFFF"/>
<path d="M17.4976 7.8816C16.4527 7.88077 15.4509 7.46483 14.7128 6.72525C13.9747 5.98568 13.5606 4.98307 13.5617 3.93805C13.5628 2.89315 13.979 1.89149 14.7189 1.15352C15.4586 0.4156 16.4614 0.00176046 17.5063 0.00320046C18.5512 0.00455462 19.5528 0.421121 20.2906 1.16112C21.0283 1.90101 21.4418 2.90384 21.4402 3.94885C21.441 4.99387 21.0256 5.99613 20.2858 6.73419C19.546 7.47221 18.5428 7.88512 17.4978 7.88168L17.4976 7.8816Z" fill="#FFFFFF"/>
</g>
</g>
<defs>
<clipPath id="clip0_3875_1082">
<rect width="32" height="32" fill="#FFFFFF"/>
</clipPath>
<clipPath id="clip1_3875_1082">
<rect width="32" height="32" fill="#FFFFFF"/>
</clipPath>
</defs>
</svg>
