<svg width="33" height="32" viewBox="0 0 33 32" fill="none" xmlns="http://www.w3.org/2000/svg">
<path d="M19.3613 7.54705C19.3613 7.39646 19.178 7.23277 18.916 7.23277H18.2875C18.0256 7.23277 17.8422 7.39646 17.8422 7.54705V8.70599H19.3613V7.54705V7.54705Z" fill="#FFFFFF"/>
<path d="M18.5624 17.7285H18.7588C19.4267 17.7089 20.0683 17.6041 20.6838 17.4208C21.5285 17.172 22.3142 16.7791 23.0082 16.2684C24.8678 14.9131 26.1052 12.7458 26.138 10.3428C26.1445 9.81249 26.0856 9.24937 25.9481 8.67318C25.1755 5.30118 22.2159 2.9375 18.7457 2.9375C15.2559 2.9375 12.3225 5.36664 11.5499 8.62082C11.432 9.11189 11.36 9.62259 11.3469 10.1529V10.3363C11.3469 12.3464 12.1719 14.3041 13.6124 15.6988C14.9678 17.0149 16.716 17.7285 18.5624 17.7285ZM15.341 9.91068C15.341 9.26903 15.8713 8.75174 16.5326 8.71246V7.547C16.5326 6.64999 17.3183 5.92321 18.2874 5.92321H18.916C19.885 5.92321 20.6707 6.64999 20.6707 7.547V8.70595H20.7624C21.5285 8.70595 22.1439 9.28865 22.1439 9.99581V12.4904C22.1439 13.7017 21.0636 14.6904 19.7344 14.6904H17.7505C16.4213 14.6904 15.341 13.7017 15.341 12.4904V9.91068Z" fill="#FFFFFF"/>
<path d="M32.2142 22.2856C32.2142 25.4481 29.641 28.0214 26.4785 28.0214H6.51487C3.35891 28.0214 0.785706 25.4481 0.785706 22.2856C0.785706 20.6487 1.46668 19.1297 2.67798 18.0363C2.45534 17.4797 2.34404 16.8839 2.34404 16.2815C2.34404 13.669 4.47201 11.5344 7.09106 11.5344C7.4839 11.5344 7.87678 11.5868 8.26307 11.6851C8.82619 10.7488 9.34999 10.0023 10.0899 9.43268C10.0571 9.66838 10.044 9.91064 10.0375 10.1529V10.3363C10.0375 12.6999 11.0065 14.9981 12.7024 16.6351C14.2934 18.1868 16.3756 19.038 18.5625 19.038H18.7982C19.5708 19.0118 20.3304 18.894 21.0506 18.6779C22.0393 18.3833 22.9559 17.9315 23.7809 17.3291C24.1541 17.0541 24.5012 16.7595 24.822 16.4321C25.575 16.5041 26.2232 16.5565 26.4785 16.5565C29.641 16.5565 32.2142 19.1297 32.2142 22.2856Z" fill="#FFFFFF"/>
</svg>
